# xmcd
#
# Track frame offsets: 
#        150
#        18317
#        37196
#        53478
#        69915
#        87981
#        106962
#        124435
#        140860
#        158003
#
# Disc length: 2338 seconds
#
# Revision: 0
# Processed by: cddbd v1.5.2PL0 Copyright (c) Steve Scherf et al.
# Submitted via: ExactAudioCopy v0.99pb4
#
DISCID=8609200a
DTITLE=สายัณห์  นิรันดร - ลูกทุ่งนิรันดร
DYEAR=2008
DGENRE=Country
TTITLE0=น้ำตาผู้ชาย
TTITLE1=กุญแจเจ้าเขาก็มี
TTITLE2=น้ำกรดรดใจ
TTITLE3=รักแท้แพ้หมา
TTITLE4=รักที่ไม่เคยพอ
TTITLE5=โทรศัพท์ไม่รับสาย
TTITLE6=เติมฟ้าเขียนรัก
TTITLE7=ไม้คานของแม่
TTITLE8=แล้วแต่เธอ
TTITLE9=คนไร้ค่าที่รัก
EXTD=
EXTT0=
EXTT1=
EXTT2=
EXTT3=
EXTT4=
EXTT5=
EXTT6=
EXTT7=
EXTT8=
EXTT9=
PLAYORDER=
